<svg width="18" height="18" viewBox="0 0 18 18" fill="none" xmlns="http://www.w3.org/2000/svg">
<g clip-path="url(#clip0_21536_2447)">
<path d="M16.415 7.19371L2.33228 1.43722C1.73899 1.19468 1.06873 1.30137 0.583106 1.71552C0.0974804 2.12974 -0.105633 2.76795 0.053094 3.38108L1.30658 8.2235H7.44384C7.72625 8.2235 7.95524 8.44905 7.95524 8.72728C7.95524 9.00549 7.72628 9.23106 7.44384 9.23106H1.30658L0.053094 14.0735C-0.105633 14.6866 0.0974463 15.3248 0.583106 15.739C1.06972 16.154 1.74005 16.2594 2.33231 16.0173L16.4151 10.2609C17.0563 9.99877 17.4545 9.41114 17.4545 8.72728C17.4545 8.04343 17.0563 7.45576 16.415 7.19371Z" fill="white"/>
</g>
<defs>
<clipPath id="clip0_21536_2447">
<rect width="17.4545" height="17.4545" fill="white"/>
</clipPath>
</defs>
</svg>
